<svg width="25" height="25" viewBox="0 0 25 25" fill="none" xmlns="http://www.w3.org/2000/svg">
<path d="M21.4286 7.14286H20.0692C19.9751 6.87735 19.8669 6.61708 19.7466 6.36335L20.7075 5.40205C20.8749 5.23464 20.9691 5.0075 20.9691 4.77077C20.9691 4.53404 20.8749 4.3069 20.7075 4.13949L18.1824 1.61394C17.8336 1.26517 17.2686 1.26517 16.9198 1.61394L15.9581 2.57481C15.7043 2.45405 15.4445 2.34637 15.1786 2.2522V0.892857C15.1786 0.39978 14.7792 0 14.2857 0H10.7143C10.2212 0 9.82143 0.39978 9.82143 0.892857V2.2522C9.55549 2.34637 9.29565 2.45405 9.04192 2.57481L8.08062 1.61394C7.73185 1.26517 7.16684 1.26517 6.81806 1.61394L4.29252 4.13949C3.94374 4.48826 3.94374 5.05327 4.29252 5.40205L5.25338 6.36335C5.13262 6.61708 5.02494 6.87692 4.93077 7.14286H3.57143C3.07835 7.14286 2.67857 7.54264 2.67857 8.03571V10.7143H8.12569C8.0671 10.4257 8.03571 10.1273 8.03571 9.82143C8.03571 7.35588 10.0345 5.35714 12.5 5.35714C14.9655 5.35714 16.9643 7.35588 16.9643 9.82143C16.9643 10.1273 16.9329 10.4257 16.8743 10.7143H22.3214V8.03571C22.3214 7.54264 21.9221 7.14286 21.4286 7.14286Z" fill="#202225"/>
<path d="M16.0714 9.82143C16.0714 7.84896 14.4725 6.25 12.5 6.25C10.5275 6.25 8.92857 7.84896 8.92857 9.82143C8.92857 10.1316 8.98051 10.4273 9.05484 10.7143H15.9452C16.0195 10.4273 16.0714 10.1316 16.0714 9.82143Z" fill="#202225"/>
<path d="M9.82143 18.75V22.3214C9.82143 22.8145 9.4217 23.2143 8.92857 23.2143H3.57143C3.0783 23.2143 2.67857 22.8145 2.67857 22.3214V18.75H0V23.2143C0 24.2005 0.799506 25 1.78571 25H23.2143C24.2005 25 25 24.2005 25 23.2143V18.75H9.82143ZM14.7321 23.2143C13.9925 23.2143 13.3929 22.6147 13.3929 21.875C13.3929 21.1353 13.9925 20.5357 14.7321 20.5357C15.4718 20.5357 16.0714 21.1353 16.0714 21.875C16.0714 22.6147 15.4718 23.2143 14.7321 23.2143ZM18.3036 23.2143C17.5639 23.2143 16.9643 22.6147 16.9643 21.875C16.9643 21.1353 17.5639 20.5357 18.3036 20.5357C19.0432 20.5357 19.6429 21.1353 19.6429 21.875C19.6429 22.6147 19.0432 23.2143 18.3036 23.2143ZM21.875 23.2143C21.1353 23.2143 20.5357 22.6147 20.5357 21.875C20.5357 21.1353 21.1353 20.5357 21.875 20.5357C22.6147 20.5357 23.2143 21.1353 23.2143 21.875C23.2143 22.6147 22.6147 23.2143 21.875 23.2143Z" fill="#202225"/>
<path d="M23.2143 11.6072H1.78571C0.799506 11.6072 0 12.4066 0 13.3929V17.8572H2.67857V16.0715H4.46429C4.95742 16.0715 5.35714 15.6717 5.35714 15.1786V13.3929H8.92857C9.4217 13.3929 9.82143 13.7926 9.82143 14.2857V17.8572H25V13.3929C25 12.4066 24.2005 11.6072 23.2143 11.6072ZM4.46429 15.1786H2.67857L4.46429 13.3929V15.1786ZM14.7321 16.0715C13.9925 16.0715 13.3929 15.4718 13.3929 14.7322C13.3929 13.9925 13.9925 13.3929 14.7321 13.3929C15.4718 13.3929 16.0714 13.9925 16.0714 14.7322C16.0714 15.4718 15.4718 16.0715 14.7321 16.0715ZM18.3036 16.0715C17.5639 16.0715 16.9643 15.4718 16.9643 14.7322C16.9643 13.9925 17.5639 13.3929 18.3036 13.3929C19.0432 13.3929 19.6429 13.9925 19.6429 14.7322C19.6429 15.4718 19.0432 16.0715 18.3036 16.0715ZM21.875 16.0715C21.1353 16.0715 20.5357 15.4718 20.5357 14.7322C20.5357 13.9925 21.1353 13.3929 21.875 13.3929C22.6147 13.3929 23.2143 13.9925 23.2143 14.7322C23.2143 15.4718 22.6147 16.0715 21.875 16.0715Z" fill="#202225"/>
<path d="M8.48214 17.8572H4.01786C3.7711 17.8572 3.57143 17.6575 3.57143 17.4108C3.57143 17.164 3.7711 16.9644 4.01786 16.9644H8.48214C8.7289 16.9644 8.92857 17.164 8.92857 17.4108C8.92857 17.6575 8.7289 17.8572 8.48214 17.8572Z" fill="#202225"/>
<path d="M8.48214 19.6429H4.01786C3.7711 19.6429 3.57143 19.4432 3.57143 19.1964C3.57143 18.9497 3.7711 18.75 4.01786 18.75H8.48214C8.7289 18.75 8.92857 18.9497 8.92857 19.1964C8.92857 19.4432 8.7289 19.6429 8.48214 19.6429Z" fill="#202225"/>
<path d="M8.48214 21.4285H4.01786C3.7711 21.4285 3.57143 21.2288 3.57143 20.9821C3.57143 20.7353 3.7711 20.5356 4.01786 20.5356H8.48214C8.7289 20.5356 8.92857 20.7353 8.92857 20.9821C8.92857 21.2288 8.7289 21.4285 8.48214 21.4285Z" fill="#202225"/>
</svg>
