<svg width="25" height="25" viewBox="0 0 25 25" fill="none" xmlns="http://www.w3.org/2000/svg">
<g clip-path="url(#clip0_1_65)">
<path d="M14.7003 9.28535C14.6641 9.30712 14.6281 9.32885 14.5906 9.3497C13.6999 9.84922 12.6685 10.0996 11.6709 10.2848C10.576 10.488 9.46316 10.5927 8.35118 10.632C8.03685 10.6432 7.72252 10.6487 7.40818 10.6487C5.24956 10.6487 3.08307 10.3871 1.49798 9.88066C0.981366 9.71681 0.459188 9.51311 0.00131226 9.21777V11.5741C0.00131226 12.2203 2.54512 13.4258 7.40818 13.4258C8.45025 13.4258 9.49367 13.3721 10.5274 13.2393C11.2973 13.1402 12.0652 12.9985 12.8106 12.7791C13.3027 12.6347 13.7989 12.4597 14.241 12.1958C14.4114 12.0939 14.5882 11.9814 14.7067 11.8185C14.8086 11.6787 14.8151 11.5375 14.8151 11.3727C14.8151 11.0792 14.8151 10.7852 14.8151 10.4918C14.8151 10.0672 14.8151 9.6423 14.8151 9.21777C14.779 9.24087 14.7378 9.26264 14.7003 9.28535Z" fill="#202225"/>
<path d="M14.6998 12.9888C14.6637 13.0105 14.6276 13.0323 14.5901 13.0531C13.7087 13.5471 12.6884 13.7975 11.7019 13.9822C10.6085 14.1873 9.49651 14.2933 8.38551 14.334C8.05961 14.3461 7.7337 14.3521 7.40736 14.3521C5.24873 14.3521 3.08219 14.0905 1.49715 13.5841C0.980054 13.4202 0.458364 13.2165 0.000488281 12.9211V15.2775H0.00141595C0.00141595 15.9237 2.54522 17.1292 7.40829 17.1292C8.45035 17.1292 9.49427 17.0755 10.528 16.9426C11.2983 16.8436 12.0663 16.7019 12.8116 16.4825C13.3037 16.338 13.8 16.163 14.2416 15.8987C14.5216 15.7316 14.8147 15.5187 14.8147 15.165C14.8147 14.9243 14.8147 14.6831 14.8147 14.4423C14.8147 13.9433 14.8147 13.4442 14.8147 12.9452C14.8147 12.9374 14.8147 12.9295 14.8147 12.9211C14.7785 12.9443 14.7373 12.9661 14.6998 12.9888Z" fill="#202225"/>
<path d="M14.7003 16.6919C13.8249 17.216 12.7953 17.4743 11.8019 17.6669C10.7117 17.878 9.60159 17.9881 8.49283 18.0335C8.13173 18.0483 7.76974 18.0557 7.4082 18.0557C5.03845 18.0557 2.34514 17.9451 0.225868 16.7572C0.187883 16.7359 0.152241 16.7141 0.11616 16.6928C0.078223 16.6701 0.0374546 16.6484 0.00088501 16.6252V18.9811C0.00088501 19.6273 2.54469 20.8328 7.40776 20.8328C8.45075 20.8328 9.4951 20.7791 10.5297 20.6457C11.3 20.5462 12.0685 20.4046 12.8143 20.1851C13.3059 20.0402 13.8022 19.8652 14.2438 19.6009C14.4484 19.4782 14.6378 19.3431 14.7387 19.1519C14.7868 19.0607 14.8151 18.9565 14.8151 18.8347C14.8151 18.575 14.8151 18.3154 14.8151 18.0557C14.8151 17.5793 14.8151 17.1034 14.8151 16.6243C14.779 16.6475 14.7378 16.6692 14.7003 16.6919Z" fill="#202225"/>
<path d="M24.8838 11.1376C24.8482 11.1589 24.8125 11.1807 24.7755 11.2015C24.6486 11.2723 24.5185 11.339 24.3852 11.4015C23.3233 11.9005 22.0835 12.1324 20.9419 12.2857C19.4731 12.4825 17.9722 12.5362 16.4932 12.4746C16.3701 12.4695 16.2488 12.4621 16.1261 12.4551C15.9979 12.4477 15.8687 12.4436 15.7405 12.4348V15.204C15.9141 15.2169 16.0877 15.2299 16.2617 15.2392C16.352 15.2438 16.4418 15.2503 16.5321 15.254C16.8862 15.2688 17.2404 15.2781 17.5922 15.2781C22.4553 15.2781 24.9991 14.0726 24.9991 13.4263V11.0696C24.9629 11.0927 24.9218 11.1145 24.8838 11.1376Z" fill="#202225"/>
<path d="M24.8843 14.8406C24.8486 14.8619 24.813 14.8836 24.7759 14.9044C24.6486 14.9757 24.5181 15.0419 24.3847 15.1039C23.5635 15.4849 22.6377 15.6965 21.7599 15.8571C20.6757 16.0557 19.5745 16.1432 18.4741 16.1811C17.812 16.2038 17.1547 16.2043 16.4936 16.1774C16.3705 16.1724 16.2492 16.1649 16.1265 16.158C15.9983 16.1506 15.8691 16.1464 15.7409 16.1376V18.9134C16.3529 18.9587 16.9737 18.9809 17.5926 18.9809C22.4557 18.9809 24.9995 17.7755 24.9995 17.1292V14.7725C24.9634 14.7957 24.9222 14.8174 24.8843 14.8406Z" fill="#202225"/>
<path d="M14.6989 20.3953C14.6628 20.417 14.6267 20.4388 14.5892 20.4596C14.4744 20.5249 14.3531 20.5878 14.2226 20.6475C14.1962 20.6596 14.1694 20.6712 14.1425 20.6827C14.0235 20.7355 13.8985 20.7864 13.7685 20.835C13.7 20.8609 13.6291 20.8859 13.5574 20.9109C13.4791 20.9382 13.399 20.9642 13.3176 20.9901C11.7325 21.4965 9.566 21.7581 7.40737 21.7581C5.24874 21.7581 3.08225 21.4965 1.49717 20.9901C1.06014 20.8512 0.626382 20.6841 0.225044 20.4596C0.187108 20.4383 0.151417 20.4165 0.115336 20.3952C0.077399 20.3725 0.0366306 20.3508 6.10352e-05 20.3276V22.6844C6.10352e-05 23.3306 2.54387 24.5361 7.40693 24.5361C12.27 24.5361 14.8138 23.3306 14.8138 22.6844V20.3276C14.7776 20.3508 14.7364 20.3726 14.6989 20.3953Z" fill="#202225"/>
<path d="M14.7818 7.74626C14.5984 7.36943 14.1267 7.17501 13.768 7.01252C12.5033 6.43986 11.0418 6.24129 9.67056 6.11674C8.98174 6.0561 8.23131 6.01953 7.40872 6.01953C2.54521 6.01909 0.00140381 7.22452 0.00140381 7.87076C0.00140381 8.517 2.54521 9.72248 7.40828 9.72248C8.21886 9.72248 9.02993 9.68962 9.83681 9.61277C10.4928 9.55027 11.1474 9.45956 11.7927 9.32666C12.2917 9.22388 12.7875 9.09753 13.2685 8.92854C13.6092 8.80912 13.9471 8.66977 14.2568 8.48273C14.4647 8.35681 14.6952 8.19896 14.7897 7.96612C14.8045 7.92999 14.816 7.89161 14.8142 7.8527C14.8123 7.8152 14.798 7.77956 14.7818 7.74626Z" fill="#202225"/>
<path d="M24.8847 7.43334C24.8491 7.45463 24.8134 7.47641 24.7764 7.49721C24.6486 7.56898 24.518 7.63518 24.3848 7.69719C23.5585 8.08095 22.6275 8.29207 21.7433 8.45314C20.655 8.65127 19.549 8.73925 18.4445 8.77533C17.7977 8.79662 17.1548 8.79848 16.509 8.77162C16.3613 8.76562 16.2159 8.75683 16.0697 8.74799C15.9604 8.7415 15.8502 8.73828 15.7415 8.73042V11.4996C15.9151 11.5126 16.0886 11.5256 16.2627 11.5348C16.353 11.5395 16.4428 11.546 16.533 11.5496C16.8872 11.5644 17.2413 11.5737 17.5932 11.5737C22.4562 11.5737 25 10.3682 25 9.72199V7.36523C24.9639 7.38843 24.9227 7.4102 24.8847 7.43334Z" fill="#202225"/>
<path d="M17.5927 4.1673C21.6834 4.1673 24.9996 3.33826 24.9996 2.31559C24.9996 1.29291 21.6834 0.463867 17.5927 0.463867C13.502 0.463867 10.1858 1.29291 10.1858 2.31559C10.1858 3.33826 13.502 4.1673 17.5927 4.1673Z" fill="#202225"/>
<path d="M22.0979 4.68161C21.0082 4.90059 19.8971 5.01587 18.7875 5.06537C18.3894 5.08344 17.9908 5.09223 17.5922 5.09223C15.4336 5.09223 13.2671 4.83068 11.682 4.32422C11.601 4.29829 11.5209 4.27237 11.4427 4.24507C11.3714 4.22008 11.3001 4.19508 11.2316 4.16915C11.1019 4.12008 10.977 4.0696 10.8575 4.01687C10.8312 4.00481 10.8038 3.99373 10.7779 3.98167C10.6473 3.92147 10.5261 3.85853 10.4103 3.79374C10.3724 3.77245 10.3367 3.75068 10.3006 3.72939C10.2627 3.70669 10.2219 3.68496 10.1854 3.66182V5.23855C10.2474 5.24549 10.3094 5.25384 10.3715 5.26126C10.4293 5.26819 10.4868 5.27512 10.5442 5.28211C10.6983 5.30247 10.852 5.32375 11.0048 5.34646C11.1608 5.3696 11.3136 5.3946 11.4654 5.42096C11.551 5.43576 11.6372 5.45011 11.7214 5.46588C11.8561 5.49132 11.9866 5.51817 12.1167 5.54595C12.1616 5.55567 12.2056 5.56539 12.2505 5.5751C12.6945 5.67417 13.1092 5.78807 13.4884 5.91673C13.512 5.92459 13.5365 5.93245 13.5602 5.94036C13.9629 6.08107 14.3675 6.25376 14.7319 6.47689C15.2017 6.76437 15.7003 7.20784 15.7373 7.7953C15.936 7.81009 16.1345 7.82586 16.3341 7.83558C16.3924 7.83836 16.4503 7.84251 16.5091 7.84529C16.8711 7.86102 17.2331 7.86985 17.5923 7.86985C22.4554 7.86985 24.9992 6.66438 24.9992 6.01814V3.66138C24.1334 4.21964 23.0973 4.48119 22.0979 4.68161Z" fill="#202225"/>
</g>
<defs>
<clipPath id="clip0_1_65">
<rect width="25" height="25" fill="white"/>
</clipPath>
</defs>
</svg>
