<svg width="18" height="18" viewBox="0 0 18 18" fill="none" xmlns="http://www.w3.org/2000/svg">
<path d="M9 9.83341C9.23611 9.83341 9.43417 9.75341 9.59417 9.59341C9.75417 9.43341 9.83389 9.23564 9.83333 9.00008V5.64591C9.83333 5.4098 9.75333 5.21536 9.59333 5.06258C9.43333 4.9098 9.23556 4.83341 9 4.83341C8.76389 4.83341 8.56583 4.91341 8.40583 5.07341C8.24583 5.23341 8.16611 5.43119 8.16667 5.66675V9.02091C8.16667 9.25703 8.24667 9.45147 8.40667 9.60425C8.56667 9.75703 8.76445 9.83341 9 9.83341ZM9 13.1667C9.23611 13.1667 9.43417 13.0867 9.59417 12.9267C9.75417 12.7667 9.83389 12.569 9.83333 12.3334C9.83333 12.0973 9.75333 11.8992 9.59333 11.7392C9.43333 11.5792 9.23556 11.4995 9 11.5001C8.76389 11.5001 8.56583 11.5801 8.40583 11.7401C8.24583 11.9001 8.16611 12.0979 8.16667 12.3334C8.16667 12.5695 8.24667 12.7676 8.40667 12.9276C8.56667 13.0876 8.76445 13.1673 9 13.1667ZM9 17.3334C7.84722 17.3334 6.76389 17.1145 5.75 16.6767C4.73611 16.239 3.85417 15.6454 3.10417 14.8959C2.35417 14.1459 1.76056 13.264 1.32333 12.2501C0.886112 11.2362 0.667223 10.1529 0.666668 9.00008C0.666668 7.8473 0.885557 6.76397 1.32333 5.75008C1.76111 4.73619 2.35472 3.85425 3.10417 3.10425C3.85417 2.35425 4.73611 1.76064 5.75 1.32341C6.76389 0.886193 7.84722 0.667304 9 0.666748C10.1528 0.666748 11.2361 0.885637 12.25 1.32341C13.2639 1.76119 14.1458 2.3548 14.8958 3.10425C15.6458 3.85425 16.2397 4.73619 16.6775 5.75008C17.1153 6.76397 17.3339 7.8473 17.3333 9.00008C17.3333 10.1529 17.1144 11.2362 16.6767 12.2501C16.2389 13.264 15.6453 14.1459 14.8958 14.8959C14.1458 15.6459 13.2639 16.2398 12.25 16.6776C11.2361 17.1154 10.1528 17.334 9 17.3334ZM9 15.6667C10.8472 15.6667 12.4203 15.0176 13.7192 13.7192C15.0181 12.4209 15.6672 10.8479 15.6667 9.00008C15.6667 7.15286 15.0175 5.5798 13.7192 4.28091C12.4208 2.98203 10.8478 2.33286 9 2.33341C7.15278 2.33341 5.57972 2.98258 4.28083 4.28091C2.98195 5.57925 2.33278 7.1523 2.33333 9.00008C2.33333 10.8473 2.9825 12.4204 4.28083 13.7192C5.57917 15.0181 7.15222 15.6673 9 15.6667Z" fill="currentColor"/>
</svg>
