<svg width="21" height="25" viewBox="0 0 21 25" fill="none" xmlns="http://www.w3.org/2000/svg">
<path d="M20.4297 4.91407L15.7422 0.226575C15.5948 0.0803347 15.3952 -0.00115941 15.1875 1.24658e-05H2.6875C1.39307 1.24658e-05 0.34375 1.04933 0.34375 2.34376V22.6563C0.34375 23.9507 1.39307 25 2.6875 25H18.3125C19.6069 25 20.6562 23.9507 20.6562 22.6563V5.46876C20.6575 5.2611 20.5759 5.06154 20.4297 4.91407ZM19.0938 22.6563C19.0938 23.0878 18.744 23.4375 18.3125 23.4375H2.6875C2.25601 23.4375 1.90625 23.0878 1.90625 22.6563V2.34376C1.90625 1.91227 2.25601 1.56251 2.6875 1.56251H14.4062V4.68751C14.4062 5.55045 15.1058 6.25001 15.9688 6.25001H19.0938V22.6563Z" fill="#202225"/>
<path d="M17.5312 18.75H15.9688V20.3125H17.5312V18.75Z" fill="#202225"/>
<path d="M17.5312 10.9375H3.46875V12.5H17.5312V10.9375Z" fill="#202225"/>
<path d="M17.5312 14.8438H3.46875V16.4062H17.5312V14.8438Z" fill="#202225"/>
<path d="M14.4062 18.75H3.46875V20.3125H14.4062V18.75Z" fill="#202225"/>
</svg>
