<svg width="25" height="25" viewBox="0 0 25 25" fill="none" xmlns="http://www.w3.org/2000/svg">
<g clip-path="url(#clip0_1_99)">
<path d="M10.7206 17.2015C7.36503 17.4087 2.65045 17.1638 0.244141 16.1199V20.3084C0.244141 20.5924 0.401115 20.8558 0.655174 20.9828C2.12917 21.7202 6.58569 22.3538 11.2867 21.9674C10.5844 20.4331 10.4223 18.7497 10.7206 17.2015Z" fill="#202225"/>
<path d="M16.5222 11.074V9.44556C12.9785 10.9844 3.77483 10.9772 0.244141 9.44556V14.3713C0.983619 15.1893 5.84316 16.0692 11.1936 15.6462C12.1345 13.4149 14.0968 11.6817 16.5222 11.074Z" fill="#202225"/>
<path d="M16.5222 7.69681V2.97192C12.9993 4.502 3.80172 4.51134 0.244141 2.97192V7.69681C1.95427 9.57802 14.9446 9.44794 16.5222 7.69681Z" fill="#202225"/>
<path d="M16.0767 1.07139C13.2952 -0.348248 3.47901 -0.366177 0.686847 1.07196C0.505458 1.16542 0.505458 1.42654 0.686656 1.52038C3.48683 2.96844 13.3099 2.928 16.0767 1.52019C16.259 1.4273 16.259 1.16447 16.0767 1.07139Z" fill="#202225"/>
<path d="M18.432 12.3564C13.2246 12.3564 10.2362 18.3427 13.3539 22.4869C13.3797 20.8022 14.3291 19.271 15.8037 18.4809C15.4356 17.8994 15.2718 17.2141 15.3387 16.5229C15.4869 14.9647 16.8119 13.7154 18.4326 13.7154C20.1462 13.7154 21.5404 15.1099 21.5404 16.824C21.5404 17.4327 21.3644 18.0012 21.0609 18.4809C22.4962 19.25 23.4817 20.7541 23.5107 22.4869C24.3227 21.4057 24.7684 20.0867 24.7684 18.6928C24.7684 15.1988 21.9261 12.3564 18.432 12.3564Z" fill="#202225"/>
<path d="M19.8293 19.6001C18.9531 20.043 17.9125 20.0443 17.0351 19.6001C15.7806 20.0018 14.8708 21.1805 14.8708 22.566V23.934C16.35 25.3771 20.5681 25.3334 21.9938 23.934V22.566C21.9938 21.1796 21.0836 20.0024 19.8293 19.6001Z" fill="#202225"/>
<path d="M18.4326 18.4147C19.309 18.4147 20.0228 17.7006 20.0228 16.8239C20.0228 15.9467 19.3094 15.2334 18.4326 15.2334C17.5581 15.2334 16.8419 15.9443 16.8419 16.8239C16.8419 17.6979 17.5526 18.4147 18.4326 18.4147Z" fill="#202225"/>
</g>
<defs>
<clipPath id="clip0_1_99">
<rect width="25" height="25" fill="white"/>
</clipPath>
</defs>
</svg>
