<svg width="25" height="25" viewBox="0 0 25 25" fill="none" xmlns="http://www.w3.org/2000/svg">
<g clip-path="url(#clip0_1_122)">
<path d="M22.5758 4.31819H14.1667C13.8258 3.97728 13.4091 3.75001 12.9545 3.63637C12.9924 3.48486 12.9924 3.37122 12.9924 3.2197C12.9924 1.70455 11.7803 0.492432 10.2652 0.492432C9.12879 0.492432 8.14394 1.21213 7.72727 2.19698C7.34849 1.89395 6.85606 1.74243 6.36364 1.74243C5.26515 1.74243 4.31818 2.57577 4.12879 3.63637C3.59849 3.71213 3.10606 3.9394 2.72727 4.31819H2.42424C1.28788 4.31819 0.378788 5.22728 0.378788 6.36364V18.8258C0.378788 19.9621 1.28788 20.8712 2.42424 20.8712H8.71212V21.6288H8.40909C7.00758 21.6288 5.83333 22.7652 5.83333 24.2046C5.83333 24.4318 5.98485 24.5833 6.21212 24.5833H18.75C18.9394 24.5833 19.1288 24.4318 19.1288 24.2046C19.1288 22.803 17.9924 21.6288 16.553 21.6288H16.2879V20.8712H22.6136C23.75 20.8712 24.6591 19.9621 24.6591 18.8258V6.32577C24.6212 5.22728 23.7121 4.31819 22.5758 4.31819ZM4.88636 7.38637C4.88636 7.31061 4.92424 7.27273 4.96212 7.19698C5.26515 6.74243 6.55303 6.25001 8.44697 6.25001C10.6061 6.25001 12.0076 6.93183 12.0076 7.38637C12.0076 7.42425 12.0076 7.46213 11.9697 7.50001C11.9318 7.53789 11.8939 7.57577 11.8561 7.65152C11.5152 8.03031 10.4924 8.4091 9.09091 8.52273H9.05303C8.86364 8.52273 8.63636 8.52273 8.44697 8.52273C8.2197 8.52273 8.0303 8.52273 7.84091 8.52273H7.80303C6.40152 8.44698 5.41667 8.03031 5.03788 7.6894C5 7.65152 4.96212 7.61364 4.92424 7.53789C4.88636 7.46213 4.88636 7.42425 4.88636 7.38637ZM4.88636 9.73486V8.52273C5.49242 8.90152 6.40152 9.16667 7.38636 9.24243C7.53788 9.24243 7.72727 9.28031 7.87879 9.28031H7.91667H8.44697C8.44697 9.28031 8.78788 9.28031 8.97727 9.28031H9.01515C9.16667 9.28031 9.31818 9.24243 9.50758 9.24243H9.54546C10.5303 9.1288 11.4394 8.90152 12.0455 8.52273V9.73486C12.0455 10.1894 10.6439 10.8712 8.48485 10.8712C6.81818 10.8712 5.60606 10.4924 5.15152 10.0758C4.96212 9.96213 4.88636 9.84849 4.88636 9.73486ZM4.88636 10.8712C5 10.947 5.11364 10.9849 5.18939 11.0606C5.22727 11.0606 5.22727 11.0985 5.26515 11.0985C5.34091 11.1364 5.41667 11.1743 5.5303 11.2121C5.56818 11.2121 5.60606 11.25 5.64394 11.25C5.7197 11.2879 5.83333 11.3258 5.94697 11.3636C5.98485 11.3636 5.98485 11.3636 6.02273 11.4015C6.74242 11.5909 7.57576 11.7046 8.40909 11.7046C9.24243 11.7046 10.0758 11.5909 10.7955 11.4015C10.8333 11.4015 10.8712 11.4015 10.8712 11.3636C10.9848 11.3258 11.0606 11.2879 11.1742 11.2879C11.2121 11.2879 11.25 11.25 11.2879 11.25C11.3636 11.2121 11.4394 11.1742 11.5152 11.1364C11.553 11.1364 11.5909 11.0985 11.6288 11.0985C11.7424 11.0606 11.8182 10.9849 11.9318 10.947H11.9697V12.1591C11.9697 12.6136 10.5682 13.2955 8.40909 13.2955C6.25 13.2955 4.84849 12.6136 4.84849 12.1591V10.8712H4.88636ZM4.88636 13.1818C5 13.2576 5.11364 13.2955 5.18939 13.3712C5.22727 13.3712 5.22727 13.3712 5.22727 13.4091C5.30303 13.447 5.41667 13.4849 5.5303 13.5227C5.56818 13.5227 5.56818 13.5606 5.60606 13.5606L5.94697 13.6742H5.98485C6.70455 13.8636 7.53788 13.9773 8.40909 13.9773C9.2803 13.9773 10.1136 13.8636 10.8333 13.6742H10.8712L11.2121 13.5606C11.25 13.5606 11.2879 13.5606 11.2879 13.5227C11.4015 13.4849 11.4773 13.447 11.5909 13.4091C11.6288 13.4091 11.6288 13.4091 11.6667 13.3712C11.7803 13.3333 11.8939 13.2576 11.9697 13.2197V14.3939C11.9697 14.8485 10.5682 15.5303 8.40909 15.5303C6.25 15.5303 4.84849 14.8485 4.84849 14.3939V13.1818H4.88636ZM12.8788 19.4697H12.1212C11.8939 19.4697 11.7424 19.2803 11.7424 19.0909C11.7424 18.9015 11.8939 18.7121 12.1212 18.7121H12.8788C13.1061 18.7121 13.2576 18.9015 13.2576 19.0909C13.2576 19.2803 13.1061 19.4697 12.8788 19.4697ZM23.8636 17.4242H1.13636V6.32577C1.13636 5.68183 1.59091 5.1894 2.19697 5.07576C2.08333 5.34092 2.04545 5.64395 2.04545 5.94698C2.04545 7.1591 2.95455 8.18183 4.12879 8.29546V9.69698V14.3939C4.12879 15.6439 6.28788 16.2879 8.44697 16.2879C10.6061 16.2879 12.7652 15.6439 12.7652 14.3939V8.29546H12.803H12.8409C13.9773 8.14395 14.8485 7.12122 14.8485 5.94698C14.8485 5.64395 14.7727 5.34092 14.6591 5.03789H22.5758C23.2955 5.03789 23.8636 5.60607 23.8636 6.32577V17.4242Z" fill="#202225"/>
<path d="M7.00758 11.9317C6.74243 11.8938 6.47727 11.8181 6.21212 11.7802C6.02273 11.7423 5.79546 11.856 5.75758 12.0454C5.7197 12.2348 5.83334 12.462 6.02273 12.4999C6.28788 12.5757 6.59091 12.6514 6.89394 12.6893H6.9697C7.15909 12.6893 7.31061 12.5378 7.34849 12.3863C7.34849 12.159 7.23485 11.9696 7.00758 11.9317Z" fill="#202225"/>
<path d="M9.31818 12.0075C9.05303 12.0454 8.75 12.0454 8.44697 12.0454C8.2197 12.0454 8.06818 12.1969 8.06818 12.4242C8.06818 12.6514 8.2197 12.803 8.44697 12.803C8.75 12.803 9.09091 12.803 9.39394 12.7651C9.62121 12.7651 9.77273 12.5757 9.73485 12.3484C9.69697 12.1211 9.50758 11.9696 9.31818 12.0075Z" fill="#202225"/>
<path d="M7.00758 14.2425C6.74243 14.2046 6.47727 14.1289 6.21212 14.091C6.02273 14.0531 5.79546 14.1668 5.75758 14.3561C5.7197 14.5455 5.83334 14.7728 6.02273 14.8107C6.28788 14.8865 6.59091 14.9622 6.89394 15.0001H6.9697C7.15909 15.0001 7.31061 14.8486 7.34849 14.6971C7.34849 14.4698 7.23485 14.2804 7.00758 14.2425Z" fill="#202225"/>
<path d="M9.31818 14.3183C9.05303 14.3562 8.75 14.3562 8.44697 14.3562C8.2197 14.3562 8.06818 14.5077 8.06818 14.735C8.06818 14.9622 8.2197 15.1138 8.44697 15.1138C8.75 15.1138 9.09091 15.1138 9.39394 15.0759C9.62121 15.0759 9.77273 14.8865 9.73485 14.6592C9.69697 14.4319 9.50758 14.2804 9.31818 14.3183Z" fill="#202225"/>
<path d="M22.6515 11.2879C22.8409 11.25 22.9924 11.0985 22.9545 10.9091C22.9167 10.2652 22.7273 9.6591 22.4242 9.09092C22.3485 8.9394 22.1212 8.86364 21.9697 8.90152C21.7424 9.01516 21.4773 8.97728 21.4015 8.86364C21.3258 8.75001 21.3636 8.52273 21.4773 8.29546C21.5909 8.14395 21.553 7.91667 21.4015 7.80304C20.9091 7.38637 20.3409 7.08334 19.7348 6.89395C19.5455 6.85607 19.3561 6.93183 19.2803 7.12122C19.1667 7.34849 19.0151 7.53789 18.8636 7.50001C18.7121 7.50001 18.5606 7.27274 18.5227 7.04546C18.4848 6.85607 18.2955 6.74243 18.1061 6.74243C17.4621 6.78031 16.8561 6.9697 16.2879 7.27274C16.1364 7.34849 16.0606 7.57577 16.1364 7.72728C16.25 7.95455 16.2121 8.2197 16.0985 8.29546C15.9848 8.37122 15.7576 8.37122 15.5303 8.2197C15.3788 8.10607 15.1515 8.14395 15.0379 8.29546C14.6212 8.78789 14.3182 9.35607 14.1288 9.96213C14.0909 10.1515 14.1667 10.3409 14.3561 10.4167C14.5833 10.5303 14.7727 10.7197 14.7348 10.8712C14.7348 11.0227 14.5076 11.1743 14.2803 11.2121C14.0909 11.25 13.9773 11.4015 13.9773 11.5909C14.0152 12.2349 14.2045 12.8409 14.5076 13.4091C14.5833 13.5606 14.8106 13.6364 14.9621 13.5606C15.1894 13.4849 15.4545 13.4849 15.5303 13.5985C15.6061 13.7121 15.6061 13.9394 15.4545 14.1667C15.3409 14.3182 15.3788 14.5455 15.5303 14.6591C16.0227 15.0758 16.5909 15.3788 17.197 15.5682C17.3864 15.6061 17.5758 15.5303 17.6515 15.3409C17.7651 15.0758 17.9545 14.9243 18.1061 14.9621C18.2576 14.9621 18.4091 15.1894 18.447 15.4167C18.4848 15.6061 18.6364 15.7197 18.8258 15.7197H18.8636C19.5076 15.6818 20.1136 15.4924 20.6818 15.1894C20.8333 15.1136 20.9091 14.8864 20.8712 14.7349C20.7576 14.5076 20.7955 14.2424 20.9091 14.1667C21.0227 14.0909 21.25 14.0909 21.4773 14.2424C21.6288 14.3561 21.8561 14.3182 21.9697 14.1667C22.3864 13.6743 22.6894 13.1061 22.8788 12.5C22.9167 12.3106 22.8409 12.1212 22.6515 12.0455C22.4242 11.9318 22.2348 11.7424 22.2727 11.5909C22.197 11.4773 22.4242 11.3636 22.6515 11.2879ZM21.9697 12.6136C21.8561 12.9167 21.7045 13.2197 21.4773 13.4849C21.0606 13.2955 20.6439 13.3333 20.303 13.5985C20 13.8636 19.8485 14.2803 19.9242 14.697C19.6212 14.8106 19.3182 14.9243 18.9773 14.9621C18.7879 14.5455 18.4848 14.2803 18.0682 14.2046C18.0303 14.2046 17.9924 14.2046 17.9545 14.2046C17.6136 14.2046 17.2727 14.3939 17.0076 14.7349C16.7045 14.6212 16.4015 14.4697 16.1364 14.2424C16.3258 13.8258 16.2879 13.4091 16.0227 13.0682C15.7576 12.7273 15.3409 12.6136 14.9242 12.6894C14.7727 12.3864 14.697 12.0833 14.6591 11.7424C15.0758 11.553 15.3409 11.25 15.4167 10.8333C15.4545 10.4167 15.2651 10.0379 14.8864 9.77273C15 9.4697 15.1515 9.16667 15.3788 8.90152C15.7955 9.09092 16.2121 9.05304 16.553 8.78789C16.8561 8.52274 17.0076 8.10607 16.9318 7.6894C17.2348 7.57576 17.5758 7.46213 17.8788 7.42425C18.0682 7.84092 18.3712 8.14395 18.7879 8.18183C19.1667 8.2197 19.5833 8.03031 19.8485 7.65152C20.1515 7.76516 20.4545 7.95455 20.7197 8.14395C20.5303 8.56061 20.5682 8.97728 20.8333 9.31819C21.0985 9.62122 21.5152 9.77274 21.9318 9.69698C22.0833 10 22.1591 10.3409 22.197 10.6439C21.7803 10.8333 21.5151 11.1364 21.4394 11.553C21.4015 11.9697 21.5909 12.3485 21.9697 12.6136Z" fill="#202225"/>
<path d="M20.4924 11.4773C20.4167 12.0454 20.1515 12.5379 19.7348 12.8788C19.3561 13.1818 18.9015 13.3333 18.447 13.3333C18.3712 13.3333 18.2955 13.3333 18.2197 13.3333C17.6894 13.2576 17.1591 12.9924 16.8182 12.5757C16.4773 12.1591 16.3258 11.5909 16.3636 11.0606C16.4773 9.92423 17.5379 9.0909 18.6364 9.24242C19.8106 9.28029 20.6061 10.3409 20.4924 11.4773Z" fill="#202225"/>
<path d="M7.00758 9.58333C6.74243 9.54545 6.47727 9.4697 6.21212 9.43182C6.02273 9.39394 5.79546 9.50758 5.75758 9.69697C5.7197 9.88636 5.83334 10.1136 6.02273 10.1515C6.28788 10.2273 6.59091 10.303 6.89394 10.3409H6.9697C7.15909 10.3409 7.31061 10.1894 7.34849 10.0379C7.34849 9.81061 7.23485 9.62121 7.00758 9.58333Z" fill="#202225"/>
<path d="M9.31818 9.65918C9.05303 9.69706 8.75 9.69706 8.44697 9.69706C8.2197 9.69706 8.06818 9.84857 8.06818 10.0758C8.06818 10.3031 8.2197 10.4546 8.44697 10.4546C8.75 10.4546 9.09091 10.4546 9.39394 10.4168C9.62121 10.4168 9.77273 10.2274 9.73485 10.0001C9.69697 9.77282 9.50758 9.65918 9.31818 9.65918Z" fill="#202225"/>
</g>
<defs>
<clipPath id="clip0_1_122">
<rect width="25" height="25" fill="white"/>
</clipPath>
</defs>
</svg>
