<svg width="14" height="14" viewBox="0 0 14 14" fill="none" xmlns="http://www.w3.org/2000/svg">
<path d="M7.00001 7.66665C7.1889 7.66665 7.34734 7.60265 7.47534 7.47465C7.60334 7.34665 7.66712 7.18842 7.66668 6.99998V4.31665C7.66668 4.12776 7.60268 3.9722 7.47468 3.84998C7.34668 3.72776 7.18845 3.66665 7.00001 3.66665C6.81112 3.66665 6.65268 3.73065 6.52468 3.85865C6.39668 3.98665 6.3329 4.14487 6.33334 4.33331V7.01665C6.33334 7.20553 6.39734 7.36109 6.52534 7.48331C6.65334 7.60554 6.81157 7.66665 7.00001 7.66665ZM7.00001 10.3333C7.1889 10.3333 7.34734 10.2693 7.47534 10.1413C7.60334 10.0133 7.66712 9.85509 7.66668 9.66665C7.66668 9.47776 7.60268 9.31931 7.47468 9.19131C7.34668 9.06331 7.18845 8.99953 7.00001 8.99998C6.81112 8.99998 6.65268 9.06398 6.52468 9.19198C6.39668 9.31998 6.3329 9.4782 6.33334 9.66665C6.33334 9.85553 6.39734 10.014 6.52534 10.142C6.65334 10.27 6.81157 10.3338 7.00001 10.3333ZM7.00001 13.6666C6.07779 13.6666 5.21112 13.4915 4.40001 13.1413C3.5889 12.7911 2.88334 12.3162 2.28334 11.7166C1.68334 11.1166 1.20845 10.4111 0.858677 9.59998C0.508899 8.78887 0.333788 7.9222 0.333344 6.99998C0.333344 6.07776 0.508455 5.21109 0.858677 4.39998C1.2089 3.58887 1.68379 2.88331 2.28334 2.28331C2.88334 1.68331 3.5889 1.20842 4.40001 0.858646C5.21112 0.508869 6.07779 0.333757 7.00001 0.333313C7.92223 0.333313 8.7889 0.508424 9.60001 0.858646C10.4111 1.20887 11.1167 1.68376 11.7167 2.28331C12.3167 2.88331 12.7918 3.58887 13.142 4.39998C13.4922 5.21109 13.6671 6.07776 13.6667 6.99998C13.6667 7.9222 13.4916 8.78887 13.1413 9.59998C12.7911 10.4111 12.3162 11.1166 11.7167 11.7166C11.1167 12.3166 10.4111 12.7918 9.60001 13.142C8.7889 13.4922 7.92223 13.6671 7.00001 13.6666ZM7.00001 12.3333C8.47779 12.3333 9.73623 11.814 10.7753 10.7753C11.8145 9.73665 12.3338 8.4782 12.3333 6.99998C12.3333 5.5222 11.814 4.26376 10.7753 3.22465C9.73668 2.18553 8.47823 1.6662 7.00001 1.66665C5.52223 1.66665 4.26379 2.18598 3.22468 3.22465C2.18557 4.26331 1.66623 5.52176 1.66668 6.99998C1.66668 8.47776 2.18601 9.7362 3.22468 10.7753C4.26334 11.8144 5.52179 12.3338 7.00001 12.3333Z" fill="currentColor"/>
</svg>
