<svg width="25" height="25" viewBox="0 0 25 25" fill="none" xmlns="http://www.w3.org/2000/svg">
<g clip-path="url(#clip0_1_213)">
<path d="M19.9302 6.2644C18.8886 6.2644 18.0414 5.41709 18.0414 4.37559V0H8.20338C6.8335 0 5.66109 0.857129 5.192 2.06274H14.3529C15.6149 2.06274 16.6379 3.08584 16.6379 4.34775V11.4823C16.6379 12.7443 15.6148 13.7674 14.3529 13.7674H4.97281V21.7699C4.97281 23.551 6.42188 25 8.20338 25H20.8108C22.5923 25 24.0414 23.5509 24.0414 21.7699V6.2644H19.9302ZM12.2616 19.2079C12.3512 19.2627 12.396 19.3597 12.396 19.4989C12.396 19.6433 12.3411 19.7701 12.2318 19.8795C12.1223 19.989 12.008 20.0437 11.8885 20.0437C11.8238 20.0437 11.7766 20.0313 11.7467 20.0064L9.85132 18.7751C9.69703 18.6756 9.62003 18.5363 9.62003 18.3572C9.62003 18.1781 9.69713 18.0389 9.85132 17.9393L11.7467 16.7081C11.7766 16.6832 11.8238 16.6708 11.8885 16.6708C12.008 16.6708 12.1223 16.7256 12.2318 16.835C12.3412 16.9444 12.396 17.0713 12.396 17.2155C12.396 17.3549 12.3512 17.4519 12.2616 17.5065L10.9483 18.3572L12.2616 19.2079ZM16.1717 15.2007L13.545 20.581C13.4853 20.7052 13.3733 20.7675 13.2092 20.7675C13.0898 20.7675 12.9903 20.7265 12.9107 20.6444C12.8311 20.5623 12.7913 20.4714 12.7913 20.372C12.7913 20.3272 12.8037 20.28 12.8287 20.2302L15.4479 14.85C15.5076 14.7256 15.6121 14.6634 15.7613 14.6634C15.8707 14.6634 15.9713 14.7007 16.0635 14.7753C16.1555 14.85 16.2016 14.9445 16.2016 15.0588C16.2016 15.1137 16.1916 15.1609 16.1717 15.2007ZM19.1417 18.7751L17.2463 20.0064C17.2165 20.0313 17.1691 20.0437 17.1045 20.0437C16.9851 20.0437 16.8706 19.989 16.7612 19.8795C16.6517 19.7701 16.597 19.6433 16.597 19.4989C16.597 19.3597 16.6418 19.2627 16.7314 19.2079L18.0448 18.3572L16.7314 17.5065C16.6419 17.4519 16.5971 17.3548 16.5971 17.2155C16.5971 17.0713 16.6518 16.9444 16.7613 16.835C16.8707 16.7256 16.9851 16.6708 17.1045 16.6708C17.1691 16.6708 17.2165 16.6832 17.2463 16.7081L19.1418 17.9393C19.2959 18.0389 19.3731 18.1781 19.3731 18.3572C19.3731 18.5362 19.2959 18.6756 19.1417 18.7751Z" fill="#202225"/>
<path d="M13.7496 3.42969H2.23585C1.53135 3.42969 0.958649 4.00239 0.958649 4.70688V11.0255C0.958649 11.73 1.53135 12.3027 2.23585 12.3027H13.7496C14.4536 12.3027 15.0268 11.73 15.0268 11.0255V4.70688C15.0268 4.00234 14.4536 3.42969 13.7496 3.42969ZM6.07276 7.15727C6.07276 7.60644 5.94581 7.93745 5.69097 8.15034C5.4981 8.31147 5.25889 8.41201 4.97281 8.45107C4.88052 8.46377 4.78287 8.47012 4.68087 8.47012H4.12037V9.69263C4.12037 9.77954 4.0774 9.84644 3.99048 9.89331C3.90357 9.94067 3.80006 9.96411 3.67901 9.96411C3.5584 9.96411 3.45494 9.94067 3.36802 9.89331C3.28111 9.84644 3.23765 9.77954 3.23765 9.69263V6.09346C3.23765 6.02168 3.26793 5.95967 3.32847 5.90645C3.38853 5.85371 3.46812 5.82734 3.56622 5.82734H4.73746C4.81949 5.82734 4.89761 5.83174 4.97276 5.84053C5.26861 5.87373 5.51373 5.97432 5.70801 6.14126C5.95113 6.35068 6.07271 6.67979 6.07271 7.12896L6.07276 7.15727ZM9.34927 9.69263C9.34927 9.77954 9.3063 9.84644 9.21939 9.89331C9.13248 9.94067 9.02896 9.96411 8.90792 9.96411C8.78731 9.96411 8.68384 9.94067 8.59693 9.89331C8.51002 9.84644 8.46656 9.77954 8.46656 9.69263V8.15908H7.34073V9.69258C7.34073 9.77949 7.29727 9.84639 7.21036 9.89326C7.12344 9.94062 7.01993 9.96406 6.89937 9.96406C6.77828 9.96406 6.67481 9.94062 6.5879 9.89326C6.50098 9.84639 6.45753 9.77949 6.45753 9.69258V6.09341C6.45753 6.00649 6.50098 5.94058 6.5879 5.89517C6.67481 5.84976 6.77833 5.8273 6.89937 5.8273C7.01998 5.8273 7.12344 5.84976 7.21036 5.89517C7.29727 5.94058 7.34073 6.00649 7.34073 6.09341V7.47998H8.46656V6.09341C8.46656 6.00649 8.51002 5.94058 8.59693 5.89517C8.68384 5.84976 8.78736 5.8273 8.90792 5.8273C9.02901 5.8273 9.13248 5.84976 9.21939 5.89517C9.3063 5.94058 9.34927 6.00649 9.34927 6.09341V9.69263ZM12.7956 7.15727C12.7956 7.60644 12.6687 7.93745 12.4138 8.15034C12.159 8.36372 11.8226 8.47012 11.4037 8.47012H10.8432V9.69263C10.8432 9.77954 10.7997 9.84644 10.7133 9.89331C10.6264 9.94067 10.5229 9.96411 10.4018 9.96411C10.2812 9.96411 10.1773 9.94067 10.0908 9.89331C10.0039 9.84644 9.96046 9.77954 9.96046 9.69263V6.09346C9.96046 6.02168 9.99073 5.95967 10.0513 5.90645C10.1113 5.85371 10.1904 5.82734 10.2885 5.82734H11.4603C11.864 5.82734 12.1872 5.93184 12.4309 6.14126C12.674 6.35068 12.7956 6.67979 12.7956 7.12896L12.7956 7.15727Z" fill="#202225"/>
<path d="M11.4037 6.59692H10.8432V7.79111H11.4037C11.743 7.79111 11.9129 7.60264 11.9129 7.22524V7.16274C11.9129 6.78589 11.743 6.59692 11.4037 6.59692Z" fill="#202225"/>
<path d="M4.9728 6.66479C4.89614 6.61987 4.79849 6.59692 4.68086 6.59692H4.12036V7.79111H4.68086C4.79853 7.79111 4.89614 7.76865 4.9728 7.72324C5.11782 7.63779 5.19004 7.47183 5.19004 7.22524V7.16274C5.19009 6.9167 5.11782 6.75073 4.9728 6.66479Z" fill="#202225"/>
<path d="M19.506 0.420166V4.37554C19.506 4.60947 19.6963 4.79976 19.9302 4.79976H23.6492L19.506 0.420166Z" fill="#202225"/>
</g>
<defs>
<clipPath id="clip0_1_213">
<rect width="25" height="25" fill="white"/>
</clipPath>
</defs>
</svg>
